<svg clip-rule="evenodd" fill-rule="evenodd" stroke-linejoin="round" stroke-miterlimit="2" viewBox="0 0 4167 4167" xmlns="http://www.w3.org/2000/svg"><linearGradient id="a" gradientTransform="matrix(2400 -2900 2900 2400 833.333 3533.33)" gradientUnits="userSpaceOnUse" x1="0" x2="1" y1="0" y2="0"><stop offset="0" stop-color="#0068b8"/><stop offset=".52" stop-color="#43d6a9"/><stop offset="1" stop-color="#5cffa3"/></linearGradient><clipPath id="b"><path clip-rule="evenodd" d="m0 0h4166.67v4166.67h-4166.67z"/></clipPath><path d="m0 0h4166.67v4166.67h-4166.67z" fill="none"/><g clip-path="url(#b)"><path d="m2533.33 633.333h700v2900h-700z" fill="url(#a)"/><g fill="#5cffa3"><path d="m833.333 633.333h800l1600 2700v200h-700z"/><path d="m166.644 4166.67c-92.035 0-166.644-74.609-166.644-166.644v-3833.38c0-92.035 74.609-166.644 166.644-166.644h3833.38c92.035 0 166.644 74.609 166.644 166.644v3833.38c0 92.035-74.609 166.644-166.644 166.644-670.003 0-3163.38 0-3833.38 0zm3666.69-300c8.841 0 17.319-3.512 23.571-9.763 6.251-6.252 9.763-14.73 9.763-23.571v-3500c0-8.84-3.512-17.319-9.763-23.57-6.252-6.251-14.73-9.763-23.571-9.763-339.251 0-3160.75 0-3500 0-8.84 0-17.319 3.512-23.57 9.763s-9.763 14.73-9.763 23.57v3500c0 8.841 3.512 17.319 9.763 23.571 6.251 6.251 14.73 9.763 23.57 9.763z"/></g></g></svg>